# MagicaVoxel @ Ephtracy

# group
o 

# material
mtllib Tile.mtl
usemtl palette

# normals
vn -1 0 0
vn 1 0 0
vn 0 0 1
vn 0 0 -1
vn 0 -1 0
vn 0 1 0

# texcoords
vt 0.306641 0.5
vt 0.533203 0.5
vt 0.572266 0.5
vt 0.603516 0.5

# verts
v -0.5 0 0.5
v -0.5 0 -0.5
v -0.5 0.6 0
v -0.5 0.6 -0.1
v -0.5 0.7 0.4
v -0.5 0.7 0.3
v -0.5 0.7 0.1
v -0.5 0.7 0
v -0.5 0.7 -0.1
v -0.5 0.7 -0.2
v -0.5 0.7 -0.3
v -0.5 0.7 -0.4
v -0.5 0.8 0.5
v -0.5 0.8 0.4
v -0.5 0.8 0.3
v -0.5 0.8 0.2
v -0.5 0.8 -0.4
v -0.5 0.8 -0.5
v -0.5 0.9 0.2
v -0.5 0.9 0.1
v -0.5 0.9 -0.2
v -0.5 0.9 -0.3
v -0.5 1 0.5
v -0.5 1 -0.5
v 0.5 0 0.5
v 0.5 0 -0.5
v 0.5 0.7 0.4
v 0.5 0.7 0.3
v 0.5 0.7 0.2
v 0.5 0.7 0
v 0.5 0.7 -0.2
v 0.5 0.7 -0.5
v 0.5 0.8 0.5
v 0.5 0.8 0.4
v 0.5 0.8 0.3
v 0.5 0.8 0.2
v 0.5 0.8 0
v 0.5 0.8 -0.2
v 0.5 1 0.5
v 0.5 1 -0.5
v -0.5 0 0.5
v -0.5 0.8 0.5
v -0.5 1 0.5
v -0.4 0.7 0.5
v -0.4 0.8 0.5
v -0.3 0.7 0.5
v -0.3 0.8 0.5
v -0.2 0.7 0.5
v -0.2 0.8 0.5
v 0.1 0.7 0.5
v 0.1 0.8 0.5
v 0.3 0.7 0.5
v 0.3 0.8 0.5
v 0.4 0.7 0.5
v 0.4 0.8 0.5
v 0.5 0 0.5
v 0.5 0.8 0.5
v 0.5 1 0.5
v -0.5 0 -0.5
v -0.5 0.8 -0.5
v -0.5 1 -0.5
v -0.3 0.7 -0.5
v -0.3 0.8 -0.5
v -0.2 0.7 -0.5
v -0.2 0.9 -0.5
v -0.1 0.7 -0.5
v -0.1 0.9 -0.5
v 0.1 0.7 -0.5
v 0.1 0.8 -0.5
v 0.2 0.7 -0.5
v 0.2 0.8 -0.5
v 0.3 0.7 -0.5
v 0.3 0.8 -0.5
v 0.4 0.7 -0.5
v 0.4 0.8 -0.5
v 0.5 0 -0.5
v 0.5 0.7 -0.5
v 0.5 1 -0.5
v -0.5 0 0.5
v 0.5 0 0.5
v -0.5 0 -0.5
v 0.5 0 -0.5
v -0.5 1 0.5
v 0.5 1 0.5
v 0.1 1 0.2
v 0.2 1 0.2
v 0.3 1 0.1
v 0.4 1 0.1
v 0.3 1 -0.1
v 0.4 1 -0.1
v 0.1 1 -0.2
v 0.2 1 -0.2
v -0.5 1 -0.5
v 0.5 1 -0.5

# faces
f 3/2/1 2/2/1 1/2/1
f 4/2/1 2/2/1 3/2/1
f 5/2/1 3/2/1 1/2/1
f 6/2/1 3/2/1 5/2/1
f 7/2/1 3/2/1 6/2/1
f 8/4/1 4/4/1 3/4/1
f 8/2/1 3/2/1 7/2/1
f 9/2/1 2/2/1 4/2/1
f 9/4/1 4/4/1 8/4/1
f 10/2/1 2/2/1 9/2/1
f 11/2/1 2/2/1 10/2/1
f 12/2/1 2/2/1 11/2/1
f 13/2/1 5/2/1 1/2/1
f 14/4/1 6/4/1 5/4/1
f 14/2/1 5/2/1 13/2/1
f 15/2/1 7/2/1 6/2/1
f 15/4/1 6/4/1 14/4/1
f 16/2/1 7/2/1 15/2/1
f 17/2/1 2/2/1 12/2/1
f 17/4/1 12/4/1 11/4/1
f 18/2/1 2/2/1 17/2/1
f 19/4/1 14/4/1 13/4/1
f 19/2/1 7/2/1 16/2/1
f 19/4/1 16/4/1 15/4/1
f 19/4/1 15/4/1 14/4/1
f 20/4/1 8/4/1 7/4/1
f 20/2/1 7/2/1 19/2/1
f 20/4/1 9/4/1 8/4/1
f 20/4/1 10/4/1 9/4/1
f 21/2/1 11/2/1 10/2/1
f 21/4/1 10/4/1 20/4/1
f 22/4/1 18/4/1 17/4/1
f 22/2/1 11/2/1 21/2/1
f 22/4/1 17/4/1 11/4/1
f 23/4/1 19/4/1 13/4/1
f 23/4/1 21/4/1 20/4/1
f 23/4/1 22/4/1 21/4/1
f 23/4/1 20/4/1 19/4/1
f 24/4/1 18/4/1 22/4/1
f 24/4/1 22/4/1 23/4/1
f 25/2/2 26/2/2 27/2/2
f 27/2/2 26/2/2 28/2/2
f 28/2/2 26/2/2 29/2/2
f 29/2/2 26/2/2 30/2/2
f 30/2/2 26/2/2 31/2/2
f 31/2/2 26/2/2 32/2/2
f 25/2/2 27/2/2 33/2/2
f 27/4/2 28/4/2 34/4/2
f 33/2/2 27/2/2 34/2/2
f 28/2/2 29/2/2 35/2/2
f 34/4/2 28/4/2 35/4/2
f 29/4/2 30/4/2 36/4/2
f 35/2/2 29/2/2 36/2/2
f 30/2/2 31/2/2 37/2/2
f 36/4/2 30/4/2 37/4/2
f 31/4/2 32/4/2 38/4/2
f 37/2/2 31/2/2 38/2/2
f 33/4/2 34/4/2 39/4/2
f 34/4/2 35/4/2 39/4/2
f 37/4/2 38/4/2 39/4/2
f 36/4/2 37/4/2 39/4/2
f 35/4/2 36/4/2 39/4/2
f 38/4/2 32/4/2 40/4/2
f 39/4/2 38/4/2 40/4/2
f 44/2/3 42/2/3 41/2/3
f 45/4/3 43/4/3 42/4/3
f 45/2/3 42/2/3 44/2/3
f 46/2/3 44/2/3 41/2/3
f 46/4/3 45/4/3 44/4/3
f 47/4/3 43/4/3 45/4/3
f 47/4/3 45/4/3 46/4/3
f 48/2/3 46/2/3 41/2/3
f 48/2/3 47/2/3 46/2/3
f 49/4/3 43/4/3 47/4/3
f 49/2/3 47/2/3 48/2/3
f 50/2/3 48/2/3 41/2/3
f 50/4/3 49/4/3 48/4/3
f 51/4/3 43/4/3 49/4/3
f 51/4/3 49/4/3 50/4/3
f 52/2/3 50/2/3 41/2/3
f 52/2/3 51/2/3 50/2/3
f 53/4/3 43/4/3 51/4/3
f 53/2/3 51/2/3 52/2/3
f 54/2/3 52/2/3 41/2/3
f 54/4/3 53/4/3 52/4/3
f 55/4/3 43/4/3 53/4/3
f 55/4/3 53/4/3 54/4/3
f 56/2/3 54/2/3 41/2/3
f 56/2/3 55/2/3 54/2/3
f 57/4/3 43/4/3 55/4/3
f 57/2/3 55/2/3 56/2/3
f 58/4/3 43/4/3 57/4/3
f 59/2/4 60/2/4 62/2/4
f 60/4/4 61/4/4 63/4/4
f 62/2/4 60/2/4 63/2/4
f 59/2/4 62/2/4 64/2/4
f 62/4/4 63/4/4 64/4/4
f 63/4/4 61/4/4 65/4/4
f 64/4/4 63/4/4 65/4/4
f 59/2/4 64/2/4 66/2/4
f 64/2/4 65/2/4 66/2/4
f 65/4/4 61/4/4 67/4/4
f 66/2/4 65/2/4 67/2/4
f 59/2/4 66/2/4 68/2/4
f 66/4/4 67/4/4 68/4/4
f 68/4/4 67/4/4 69/4/4
f 59/2/4 68/2/4 70/2/4
f 68/2/4 69/2/4 70/2/4
f 69/4/4 67/4/4 71/4/4
f 70/2/4 69/2/4 71/2/4
f 59/2/4 70/2/4 72/2/4
f 70/4/4 71/4/4 72/4/4
f 71/4/4 67/4/4 73/4/4
f 72/4/4 71/4/4 73/4/4
f 59/2/4 72/2/4 74/2/4
f 72/2/4 73/2/4 74/2/4
f 73/4/4 67/4/4 75/4/4
f 74/2/4 73/2/4 75/2/4
f 59/2/4 74/2/4 76/2/4
f 74/4/4 75/4/4 77/4/4
f 76/2/4 74/2/4 77/2/4
f 67/4/4 61/4/4 78/4/4
f 77/4/4 75/4/4 78/4/4
f 75/4/4 67/4/4 78/4/4
f 81/2/5 80/2/5 79/2/5
f 82/2/5 80/2/5 81/2/5
f 83/4/6 84/4/6 85/4/6
f 85/4/6 84/4/6 86/4/6
f 86/4/6 84/4/6 87/4/6
f 87/4/6 84/4/6 88/4/6
f 86/4/6 87/4/6 89/4/6
f 87/3/6 88/3/6 89/3/6
f 88/4/6 84/4/6 90/4/6
f 89/3/6 88/3/6 90/3/6
f 83/4/6 85/4/6 91/4/6
f 85/3/6 86/3/6 91/3/6
f 89/4/6 90/4/6 92/4/6
f 91/3/6 86/3/6 92/3/6
f 86/4/6 89/4/6 92/4/6
f 83/4/6 91/4/6 93/4/6
f 91/4/6 92/4/6 93/4/6
f 90/4/6 84/4/6 94/4/6
f 93/4/6 92/4/6 94/4/6
f 92/4/6 90/4/6 94/4/6
