# MagicaVoxel @ Ephtracy

# group
o 

# material
mtllib untitled.mtl
usemtl palette

# normals
vn -1 0 0
vn 1 0 0
vn 0 0 1
vn 0 0 -1
vn 0 -1 0
vn 0 1 0

# texcoords
vt 0.00195312 0.5
vt 0.556641 0.5

# verts
v -0.8 1.9 0.8
v -0.8 1.9 0.5
v -0.8 2 0.8
v -0.8 2 0.5
v -0.7 1.9 0.5
v -0.7 1.9 0.3
v -0.7 2 0.5
v -0.7 2 0.3
v -0.6 1.9 0.3
v -0.6 1.9 -5.96046e-08
v -0.6 2 0.3
v -0.6 2 -5.96046e-08
v -0.5 1.9 -5.96046e-08
v -0.5 1.9 -0.2
v -0.5 2 -5.96046e-08
v -0.5 2 -0.2
v -0.4 1.9 -0.2
v -0.4 1.9 -0.4
v -0.4 2 -0.2
v -0.4 2 -0.4
v -0.3 1.9 -0.4
v -0.3 1.9 -0.6
v -0.3 2 -0.4
v -0.3 2 -0.6
v -0.2 1.9 -0.6
v -0.2 1.9 -0.8
v -0.2 2 -0.6
v -0.2 2 -0.8
v -0.1 1.9 -0.8
v -0.1 1.9 -0.9
v -0.1 2 -0.8
v -0.1 2 -0.9
v 0.1 1.9 -0.8
v 0.1 1.9 -0.9
v 0.1 2 -0.8
v 0.1 2 -0.9
v 0.2 1.9 -0.6
v 0.2 1.9 -0.8
v 0.2 2 -0.6
v 0.2 2 -0.8
v 0.3 1.9 -0.4
v 0.3 1.9 -0.6
v 0.3 2 -0.4
v 0.3 2 -0.6
v 0.4 1.9 -0.2
v 0.4 1.9 -0.4
v 0.4 2 -0.2
v 0.4 2 -0.4
v 0.5 1.9 -5.96046e-08
v 0.5 1.9 -0.2
v 0.5 2 -5.96046e-08
v 0.5 2 -0.2
v 0.6 1.9 0.3
v 0.6 1.9 -5.96046e-08
v 0.6 2 0.3
v 0.6 2 -5.96046e-08
v 0.7 1.9 0.5
v 0.7 1.9 0.3
v 0.7 2 0.5
v 0.7 2 0.3
v 0.8 1.9 0.8
v 0.8 1.9 0.5
v 0.8 2 0.8
v 0.8 2 0.5
v -0.8 1.9 0.8
v -0.8 2 0.8
v 0.8 1.9 0.8
v 0.8 2 0.8
v -0.8 1.9 0.5
v -0.8 2 0.5
v -0.7 1.9 0.5
v -0.7 2 0.5
v 0.7 1.9 0.5
v 0.7 2 0.5
v 0.8 1.9 0.5
v 0.8 2 0.5
v -0.7 1.9 0.3
v -0.7 2 0.3
v -0.6 1.9 0.3
v -0.6 2 0.3
v 0.6 1.9 0.3
v 0.6 2 0.3
v 0.7 1.9 0.3
v 0.7 2 0.3
v -0.6 1.9 -5.96046e-08
v -0.6 2 -5.96046e-08
v -0.5 1.9 -5.96046e-08
v -0.5 2 -5.96046e-08
v 0.5 1.9 -5.96046e-08
v 0.5 2 -5.96046e-08
v 0.6 1.9 -5.96046e-08
v 0.6 2 -5.96046e-08
v -0.5 1.9 -0.2
v -0.5 2 -0.2
v -0.4 1.9 -0.2
v -0.4 2 -0.2
v 0.4 1.9 -0.2
v 0.4 2 -0.2
v 0.5 1.9 -0.2
v 0.5 2 -0.2
v -0.4 1.9 -0.4
v -0.4 2 -0.4
v -0.3 1.9 -0.4
v -0.3 2 -0.4
v 0.3 1.9 -0.4
v 0.3 2 -0.4
v 0.4 1.9 -0.4
v 0.4 2 -0.4
v -0.3 1.9 -0.6
v -0.3 2 -0.6
v -0.2 1.9 -0.6
v -0.2 2 -0.6
v 0.2 1.9 -0.6
v 0.2 2 -0.6
v 0.3 1.9 -0.6
v 0.3 2 -0.6
v -0.2 1.9 -0.8
v -0.2 2 -0.8
v -0.1 1.9 -0.8
v -0.1 2 -0.8
v 0.1 1.9 -0.8
v 0.1 2 -0.8
v 0.2 1.9 -0.8
v 0.2 2 -0.8
v -0.1 1.9 -0.9
v -0.1 2 -0.9
v 0.1 1.9 -0.9
v 0.1 2 -0.9
v -0.8 1.9 0.8
v 0.8 1.9 0.8
v -0.7 1.9 0.7
v 0.7 1.9 0.7
v -0.8 1.9 0.5
v -0.7 1.9 0.5
v -0.6 1.9 0.5
v 0.6 1.9 0.5
v 0.7 1.9 0.5
v 0.8 1.9 0.5
v -0.7 1.9 0.3
v -0.6 1.9 0.3
v -0.5 1.9 0.3
v 0.5 1.9 0.3
v 0.6 1.9 0.3
v 0.7 1.9 0.3
v -0.6 1.9 -5.96046e-08
v -0.5 1.9 -5.96046e-08
v -0.4 1.9 -5.96046e-08
v 0.4 1.9 -5.96046e-08
v 0.5 1.9 -5.96046e-08
v 0.6 1.9 -5.96046e-08
v -0.5 1.9 -0.2
v -0.4 1.9 -0.2
v -0.3 1.9 -0.2
v 0.3 1.9 -0.2
v 0.4 1.9 -0.2
v 0.5 1.9 -0.2
v -0.4 1.9 -0.4
v -0.3 1.9 -0.4
v -0.2 1.9 -0.4
v 0.2 1.9 -0.4
v 0.3 1.9 -0.4
v 0.4 1.9 -0.4
v -0.3 1.9 -0.6
v -0.2 1.9 -0.6
v -0.1 1.9 -0.6
v 0.1 1.9 -0.6
v 0.2 1.9 -0.6
v 0.3 1.9 -0.6
v -0.2 1.9 -0.8
v -0.1 1.9 -0.8
v 0.1 1.9 -0.8
v 0.2 1.9 -0.8
v -0.1 1.9 -0.9
v 0.1 1.9 -0.9
v -0.8 2 0.8
v 0.8 2 0.8
v -0.7 2 0.7
v 0.7 2 0.7
v -0.8 2 0.5
v -0.7 2 0.5
v -0.6 2 0.5
v 0.6 2 0.5
v 0.7 2 0.5
v 0.8 2 0.5
v -0.7 2 0.3
v -0.6 2 0.3
v -0.5 2 0.3
v 0.5 2 0.3
v 0.6 2 0.3
v 0.7 2 0.3
v -0.6 2 -5.96046e-08
v -0.5 2 -5.96046e-08
v -0.4 2 -5.96046e-08
v 0.4 2 -5.96046e-08
v 0.5 2 -5.96046e-08
v 0.6 2 -5.96046e-08
v -0.5 2 -0.2
v -0.4 2 -0.2
v -0.3 2 -0.2
v 0.3 2 -0.2
v 0.4 2 -0.2
v 0.5 2 -0.2
v -0.4 2 -0.4
v -0.3 2 -0.4
v -0.2 2 -0.4
v 0.2 2 -0.4
v 0.3 2 -0.4
v 0.4 2 -0.4
v -0.3 2 -0.6
v -0.2 2 -0.6
v -0.1 2 -0.6
v 0.1 2 -0.6
v 0.2 2 -0.6
v 0.3 2 -0.6
v -0.2 2 -0.8
v -0.1 2 -0.8
v 0.1 2 -0.8
v 0.2 2 -0.8
v -0.1 2 -0.9
v 0.1 2 -0.9

# faces
f 3/2/1 2/2/1 1/2/1
f 4/2/1 2/2/1 3/2/1
f 7/2/1 6/2/1 5/2/1
f 8/2/1 6/2/1 7/2/1
f 11/2/1 10/2/1 9/2/1
f 12/2/1 10/2/1 11/2/1
f 15/2/1 14/2/1 13/2/1
f 16/2/1 14/2/1 15/2/1
f 19/2/1 18/2/1 17/2/1
f 20/2/1 18/2/1 19/2/1
f 23/2/1 22/2/1 21/2/1
f 24/2/1 22/2/1 23/2/1
f 27/2/1 26/2/1 25/2/1
f 28/2/1 26/2/1 27/2/1
f 31/2/1 30/2/1 29/2/1
f 32/2/1 30/2/1 31/2/1
f 33/2/2 34/2/2 35/2/2
f 35/2/2 34/2/2 36/2/2
f 37/2/2 38/2/2 39/2/2
f 39/2/2 38/2/2 40/2/2
f 41/2/2 42/2/2 43/2/2
f 43/2/2 42/2/2 44/2/2
f 45/2/2 46/2/2 47/2/2
f 47/2/2 46/2/2 48/2/2
f 49/2/2 50/2/2 51/2/2
f 51/2/2 50/2/2 52/2/2
f 53/2/2 54/2/2 55/2/2
f 55/2/2 54/2/2 56/2/2
f 57/2/2 58/2/2 59/2/2
f 59/2/2 58/2/2 60/2/2
f 61/2/2 62/2/2 63/2/2
f 63/2/2 62/2/2 64/2/2
f 67/2/3 66/2/3 65/2/3
f 68/2/3 66/2/3 67/2/3
f 69/2/4 70/2/4 71/2/4
f 71/2/4 70/2/4 72/2/4
f 73/2/4 74/2/4 75/2/4
f 75/2/4 74/2/4 76/2/4
f 77/2/4 78/2/4 79/2/4
f 79/2/4 78/2/4 80/2/4
f 81/2/4 82/2/4 83/2/4
f 83/2/4 82/2/4 84/2/4
f 85/2/4 86/2/4 87/2/4
f 87/2/4 86/2/4 88/2/4
f 89/2/4 90/2/4 91/2/4
f 91/2/4 90/2/4 92/2/4
f 93/2/4 94/2/4 95/2/4
f 95/2/4 94/2/4 96/2/4
f 97/2/4 98/2/4 99/2/4
f 99/2/4 98/2/4 100/2/4
f 101/2/4 102/2/4 103/2/4
f 103/2/4 102/2/4 104/2/4
f 105/2/4 106/2/4 107/2/4
f 107/2/4 106/2/4 108/2/4
f 109/2/4 110/2/4 111/2/4
f 111/2/4 110/2/4 112/2/4
f 113/2/4 114/2/4 115/2/4
f 115/2/4 114/2/4 116/2/4
f 117/2/4 118/2/4 119/2/4
f 119/2/4 118/2/4 120/2/4
f 121/2/4 122/2/4 123/2/4
f 123/2/4 122/2/4 124/2/4
f 125/2/4 126/2/4 127/2/4
f 127/2/4 126/2/4 128/2/4
f 131/2/5 130/2/5 129/2/5
f 132/2/5 130/2/5 131/2/5
f 133/2/5 131/2/5 129/2/5
f 134/1/5 132/1/5 131/1/5
f 134/2/5 131/2/5 133/2/5
f 135/1/5 132/1/5 134/1/5
f 136/1/5 132/1/5 135/1/5
f 137/2/5 130/2/5 132/2/5
f 137/1/5 132/1/5 136/1/5
f 138/2/5 130/2/5 137/2/5
f 139/2/5 135/2/5 134/2/5
f 140/1/5 136/1/5 135/1/5
f 140/2/5 135/2/5 139/2/5
f 141/1/5 136/1/5 140/1/5
f 142/1/5 136/1/5 141/1/5
f 143/2/5 137/2/5 136/2/5
f 143/1/5 136/1/5 142/1/5
f 144/2/5 137/2/5 143/2/5
f 145/2/5 141/2/5 140/2/5
f 146/1/5 142/1/5 141/1/5
f 146/2/5 141/2/5 145/2/5
f 147/1/5 142/1/5 146/1/5
f 148/1/5 142/1/5 147/1/5
f 149/2/5 143/2/5 142/2/5
f 149/1/5 142/1/5 148/1/5
f 150/2/5 143/2/5 149/2/5
f 151/2/5 147/2/5 146/2/5
f 152/1/5 148/1/5 147/1/5
f 152/2/5 147/2/5 151/2/5
f 153/1/5 148/1/5 152/1/5
f 154/1/5 148/1/5 153/1/5
f 155/2/5 149/2/5 148/2/5
f 155/1/5 148/1/5 154/1/5
f 156/2/5 149/2/5 155/2/5
f 157/2/5 153/2/5 152/2/5
f 158/1/5 154/1/5 153/1/5
f 158/2/5 153/2/5 157/2/5
f 159/1/5 154/1/5 158/1/5
f 160/1/5 154/1/5 159/1/5
f 161/2/5 155/2/5 154/2/5
f 161/1/5 154/1/5 160/1/5
f 162/2/5 155/2/5 161/2/5
f 163/2/5 159/2/5 158/2/5
f 164/1/5 160/1/5 159/1/5
f 164/2/5 159/2/5 163/2/5
f 165/1/5 160/1/5 164/1/5
f 166/1/5 160/1/5 165/1/5
f 167/2/5 161/2/5 160/2/5
f 167/1/5 160/1/5 166/1/5
f 168/2/5 161/2/5 167/2/5
f 169/2/5 165/2/5 164/2/5
f 170/1/5 166/1/5 165/1/5
f 170/2/5 165/2/5 169/2/5
f 171/2/5 167/2/5 166/2/5
f 171/1/5 166/1/5 170/1/5
f 172/2/5 167/2/5 171/2/5
f 173/2/5 171/2/5 170/2/5
f 174/2/5 171/2/5 173/2/5
f 175/2/6 176/2/6 177/2/6
f 177/2/6 176/2/6 178/2/6
f 175/2/6 177/2/6 179/2/6
f 177/1/6 178/1/6 180/1/6
f 179/2/6 177/2/6 180/2/6
f 180/1/6 178/1/6 181/1/6
f 181/1/6 178/1/6 182/1/6
f 178/2/6 176/2/6 183/2/6
f 182/1/6 178/1/6 183/1/6
f 183/2/6 176/2/6 184/2/6
f 180/2/6 181/2/6 185/2/6
f 181/1/6 182/1/6 186/1/6
f 185/2/6 181/2/6 186/2/6
f 186/1/6 182/1/6 187/1/6
f 187/1/6 182/1/6 188/1/6
f 182/2/6 183/2/6 189/2/6
f 188/1/6 182/1/6 189/1/6
f 189/2/6 183/2/6 190/2/6
f 186/2/6 187/2/6 191/2/6
f 187/1/6 188/1/6 192/1/6
f 191/2/6 187/2/6 192/2/6
f 192/1/6 188/1/6 193/1/6
f 193/1/6 188/1/6 194/1/6
f 188/2/6 189/2/6 195/2/6
f 194/1/6 188/1/6 195/1/6
f 195/2/6 189/2/6 196/2/6
f 192/2/6 193/2/6 197/2/6
f 193/1/6 194/1/6 198/1/6
f 197/2/6 193/2/6 198/2/6
f 198/1/6 194/1/6 199/1/6
f 199/1/6 194/1/6 200/1/6
f 194/2/6 195/2/6 201/2/6
f 200/1/6 194/1/6 201/1/6
f 201/2/6 195/2/6 202/2/6
f 198/2/6 199/2/6 203/2/6
f 199/1/6 200/1/6 204/1/6
f 203/2/6 199/2/6 204/2/6
f 204/1/6 200/1/6 205/1/6
f 205/1/6 200/1/6 206/1/6
f 200/2/6 201/2/6 207/2/6
f 206/1/6 200/1/6 207/1/6
f 207/2/6 201/2/6 208/2/6
f 204/2/6 205/2/6 209/2/6
f 205/1/6 206/1/6 210/1/6
f 209/2/6 205/2/6 210/2/6
f 210/1/6 206/1/6 211/1/6
f 211/1/6 206/1/6 212/1/6
f 206/2/6 207/2/6 213/2/6
f 212/1/6 206/1/6 213/1/6
f 213/2/6 207/2/6 214/2/6
f 210/2/6 211/2/6 215/2/6
f 211/1/6 212/1/6 216/1/6
f 215/2/6 211/2/6 216/2/6
f 212/2/6 213/2/6 217/2/6
f 216/1/6 212/1/6 217/1/6
f 217/2/6 213/2/6 218/2/6
f 216/2/6 217/2/6 219/2/6
f 219/2/6 217/2/6 220/2/6
